# xmcd
#
# Track frame offsets: 
#        150
#        20754
#        40519
#        62903
#        79644
#        93835
#        109804
#        128894
#        160172
#        182275
#        202883
#
# Disc length: 3776 seconds
#
# Revision: 0
# Processed by: cddbd v1.4PL0 Copyright (c) Steve Scherf et al.
# Submitted via: ExactAudioCopy v0.90b4
#
DISCID=800ebe0b
DTITLE=Jay McShann - Still Jumpin' The Blues
DYEAR=1900
DGENRE=Blues
TTITLE0=Goin To Chicago (80)
TTITLE1=Moten Swing (190)
TTITLE2=Sunny Side Of The Street
TTITLE3=Ain't Nobody's Business
TTITLE4=Come On Over To My House (140)
TTITLE5=Trouble In Mind
TTITLE6=Say Forward, I'll March (190)
TTITLE7=Backwater Blues
TTITLE8=She's Got It
TTITLE9=Hootie's K.C. Christmas Prayer
TTITLE10=Interview With Jay McShann (Bonus)
EXTD=
EXTT0=
EXTT1=
EXTT2=
EXTT3=
EXTT4=
EXTT5=
EXTT6=
EXTT7=
EXTT8=
EXTT9=
EXTT10=
PLAYORDER=
